<?xml version="1.0" encoding="utf-8"?>
<!-- Generator: Adobe Illustrator 22.0.1, SVG Export Plug-In . SVG Version: 6.00 Build 0)  -->
<svg version="1.1" id="Capa_1" xmlns="http://www.w3.org/2000/svg" xmlns:xlink="http://www.w3.org/1999/xlink" x="0px" y="0px"
	 viewBox="0 0 841.9 595.3" style="enable-background:new 0 0 841.9 595.3;" xml:space="preserve">
<style type="text/css">
	.st0{fill:#F93A3A;}
</style>
<path class="st0" d="M700,297.1c1.3,153.5-127.4,280.8-283.7,278.7c-149.9-2-273.9-127.1-274.2-279.1
	c-0.3-156.2,129.8-282.1,286-279.4C576.5,19.8,700,144.7,700,297.1z M462.6,144.5c0-0.3,0-0.6,0-0.9c-12.4,0-24.8,0.2-37.2,0
	c-70.1-1.4-107.2,53.3-103.3,103.8c1.6,21.1,0.3,42.5,0.2,63.7c0,8.4,0.1,17.1,11.2,17.5c11.7,0.4,13-8.6,13-17.5
	c0.1-23,0-46,0.1-69c0.1-43.4,29.5-73.5,73-74c31-0.4,62-0.2,92.9,0c17.8,0.1,28.1,8.7,28.1,23c0,14.1-10.8,23-28.2,23.1
	c-28.3,0.1-56.7-0.2-85,0.1c-25.4,0.2-43.9,18.7-44,43.4c-0.1,24.8,18.2,43.5,43.4,44c12.4,0.3,24.8,0,37.2,0.1
	c16.5,0.1,26,7.5,26.1,19.9c0.1,12.2-9.9,20-25.9,20.1c-31.4,0.1-62.8-0.2-94.3,0.1c-27,0.2-46.8,19.8-47.5,46.8
	c-0.3,11.5-0.3,23,0,34.5c0.7,26.5,20.9,47.7,46.4,49c28,1.4,51.1-16.7,54.3-43.5c1.2-9.6,0.5-19.4,0.3-29.2
	c-0.2-7.8-4.6-13.7-12.3-11.8c-4.5,1.1-9.7,7.2-10.8,11.9c-1.8,7.5-0.1,15.9-0.8,23.8c-1.3,15-13.1,25.4-27.5,25.1
	c-14.6-0.3-25.1-11.2-25.5-26.7c-0.3-8.8-0.1-17.7,0-26.6c0.1-21.4,8-29.5,29.6-29.6c31.4-0.1,62.9,0.2,94.3-0.1
	c24.9-0.3,43.9-19.8,43.8-44c-0.1-24.4-19.1-43-44.3-43.4c-14.2-0.2-28.3,0.4-42.5-0.2c-15.3-0.7-25.7-16.1-17.9-27.7
	c4.1-6.1,14-11.2,21.5-11.6c28.7-1.3,57.5-0.3,86.3-0.6c26-0.2,45.8-19.2,47.3-44.4c1.4-24.9-16.7-46.7-42.4-48.6
	C502.5,143.3,482.5,144.5,462.6,144.5z"/>
</svg>
